<svg xmlns="http://www.w3.org/2000/svg" viewBox="-5 -3 95 122">
  <title>Dubai Clean</title>
  <path fill="#00a5d2" d="M56.82,53c-5.32,0-10.64,0-16,0a22.42,22.42,0,0,0-21,29.9A22.67,22.67,0,0,0,39.67,97.74a22.54,22.54,0,0,0,23.6-22.47c0-2.52,0-5,0-7.56A6.37,6.37,0,0,1,70,61h9.6c.56,0,1,0,1,.78-.14,5.71.38,11.45-.25,17.14-1.66,14.82-9.18,25.82-22.62,32.2C39.15,120,18.09,113.46,7.09,96A39.69,39.69,0,0,1,36.2,36a38.13,38.13,0,0,1,4.9-.28c12.72,0,25.43,0,38.15,0,1,0,1.37.18,1.34,1.3-.1,3,0,6,0,9,0,4.31-2.71,7-7,7Z"/>
  <path fill="#84c446" d="M80.56,12v8.87a6.4,6.4,0,0,1-6.31,6.76c-3.4.14-6.8,0-10.2.06-.66,0-.79-.28-.78-.87,0-4.23-.08-8.47,0-12.71.15-4.71,2.8-7.83,6.83-9.94a29.12,29.12,0,0,1,9.77-2.68c.78-.11.63.37.63.79Q80.57,7.12,80.56,12Z"/>
</svg>
