<svg id="Layer_1" data-name="Layer 1" xmlns="http://www.w3.org/2000/svg" xmlns:xlink="http://www.w3.org/1999/xlink" viewBox="0 0 294.52 116.5"><defs><style>.cls-1{fill:#fff;}.cls-2{isolation:isolate;}.cls-3{fill:#00a5d2;}.cls-4{fill:#84c446;}.cls-5{clip-path:url(#clip-path);}.cls-6{clip-path:url(#clip-path-2);}.cls-7{fill:#84c346;}</style><clipPath id="clip-path"><path class="cls-1" d="M129.74,1.71a4.73,4.73,0,0,1,3.7,1.45,5.55,5.55,0,0,1,1.31,3.91V34.52q0,12.58-6.33,19.17T110,60.28q-12.15,0-18.57-6.59T85,34.52V7.15a5.56,5.56,0,0,1,1.36-4,4.87,4.87,0,0,1,3.74-1.45,4.73,4.73,0,0,1,3.7,1.45,5.68,5.68,0,0,1,1.32,4V34.44q0,8.16,3.78,12.36T110,51q14.79,0,14.79-16.57V7.07a5.56,5.56,0,0,1,1.32-3.91A4.62,4.62,0,0,1,129.74,1.71Zm69.95,16.07q0,8.92-7.31,12.41v.17q8.93,3.22,8.93,13.09,0,8.07-4.59,11.9t-14.2,3.82H156.26a5,5,0,0,1-5.44-5.44V7.66a5.39,5.39,0,0,1,1.44-4,5.4,5.4,0,0,1,4-1.45h24.65q9.6,0,14.19,3.78t4.59,11.78ZM160.93,26h19.55q9,0,9-7.22t-9-7.31H160.93Zm0,23.89h21q9,0,9-7.48,0-7.32-9-7.31h-21ZM240.66,1.2q12.5,0,19.34,7t6.84,20V54.24a5.61,5.61,0,0,1-1.36,4,4.88,4.88,0,0,1-3.74,1.44,4.78,4.78,0,0,1-3.65-1.44,5.61,5.61,0,0,1-1.36-4V42.51H224.34V54.33A5.63,5.63,0,0,1,223,58.24a4.67,4.67,0,0,1-3.62,1.44,4.74,4.74,0,0,1-3.69-1.44,5.59,5.59,0,0,1-1.32-3.91V28.15q0-13,6.84-20T240.66,1.2Zm16.07,32.05V27.72q0-8.41-4.17-12.83t-12-4.42q-7.91,0-12.07,4.37t-4.17,12.88v5.53Zm26.18-26.1a5.56,5.56,0,0,1,1.36-4A4.85,4.85,0,0,1,288,1.71a4.73,4.73,0,0,1,3.69,1.45,5.68,5.68,0,0,1,1.32,4V54.24a5.73,5.73,0,0,1-1.32,4A4.75,4.75,0,0,1,288,59.68a4.88,4.88,0,0,1-3.74-1.44,5.61,5.61,0,0,1-1.36-4V7.15Z"/></clipPath><clipPath id="clip-path-2"><path class="cls-1" d="M94.46,106h29.76a5,5,0,0,1,3.44,1.16,4.08,4.08,0,0,1,1.28,3.16,4.18,4.18,0,0,1-1.28,3.2,4.84,4.84,0,0,1-3.44,1.2H90.06a4.71,4.71,0,0,1-5.12-5.12V65.77A5.24,5.24,0,0,1,86.22,62a4.61,4.61,0,0,1,3.52-1.36A4.5,4.5,0,0,1,93.22,62a5.41,5.41,0,0,1,1.24,3.76Zm49.19,0h31a4.94,4.94,0,0,1,3.44,1.16,4.08,4.08,0,0,1,1.28,3.16,4.18,4.18,0,0,1-1.28,3.2,4.82,4.82,0,0,1-3.44,1.2H139.25a4.71,4.71,0,0,1-5.12-5.12V66.25a4.71,4.71,0,0,1,5.12-5.12h35.36a4.82,4.82,0,0,1,3.44,1.2,4.2,4.2,0,0,1,1.28,3.2,4,4,0,0,1-1.28,3.16,4.89,4.89,0,0,1-3.44,1.16h-31v13.6h25a4.92,4.92,0,0,1,3.48,1.16,4.65,4.65,0,0,1,0,6.32,4.88,4.88,0,0,1-3.48,1.16h-25Zm66.64-45.84q11.76,0,18.2,6.56t6.44,18.8v24.56a5.27,5.27,0,0,1-1.28,3.76,4.6,4.6,0,0,1-3.52,1.36,4.48,4.48,0,0,1-3.44-1.36,5.23,5.23,0,0,1-1.28-3.76v-11H194.93v11.12a5.22,5.22,0,0,1-1.24,3.68,4.36,4.36,0,0,1-3.4,1.36,4.47,4.47,0,0,1-3.48-1.36,5.22,5.22,0,0,1-1.24-3.68V85.53q0-12.24,6.44-18.8T210.29,60.17Zm15.12,30.16v-5.2q0-7.92-3.92-12.08t-11.28-4.16q-7.44,0-11.36,4.12t-3.92,12.12v5.2Zm62.64-29.68A4.5,4.5,0,0,1,291.53,62a5.3,5.3,0,0,1,1.24,3.68v43.68a6,6,0,0,1-1.48,4.24,5.24,5.24,0,0,1-4,1.6,6.8,6.8,0,0,1-5.52-2.8L253.49,76.33h-.16v33.84a5.27,5.27,0,0,1-1.24,3.68,4.47,4.47,0,0,1-3.48,1.36,4.35,4.35,0,0,1-3.4-1.36,5.22,5.22,0,0,1-1.24-3.68V66.49a6,6,0,0,1,1.5-4.24,5.2,5.2,0,0,1,4-1.6,6.51,6.51,0,0,1,5.38,2.81l28.33,36.32h.27V65.7A5.24,5.24,0,0,1,284.65,62,4.36,4.36,0,0,1,288.05,60.65Z"/></clipPath></defs><g class="cls-2"><path class="cls-3" d="M56.82,53c-5.32,0-10.64,0-16,0a22.42,22.42,0,0,0-21,29.9A22.67,22.67,0,0,0,39.67,97.74a22.54,22.54,0,0,0,23.6-22.47c0-2.52,0-5,0-7.56A6.37,6.37,0,0,1,70,61h9.6c.56,0,1,0,1,.78-.14,5.71.38,11.45-.25,17.14-1.66,14.82-9.18,25.82-22.62,32.2C39.15,120,18.09,113.46,7.09,96A39.69,39.69,0,0,1,36.2,36a38.13,38.13,0,0,1,4.9-.28c12.72,0,25.43,0,38.15,0,1,0,1.37.18,1.34,1.3-.1,3,0,6,0,9,0,4.31-2.71,7-7,7Z"/><path class="cls-4" d="M80.56,12v8.87a6.4,6.4,0,0,1-6.31,6.76c-3.4.14-6.8,0-10.2.06-.66,0-.79-.28-.78-.87,0-4.23-.08-8.47,0-12.71.15-4.71,2.8-7.83,6.83-9.94a29.12,29.12,0,0,1,9.77-2.68c.78-.11.63.37.63.79Q80.57,7.12,80.56,12Z"/><path class="cls-1" d="M129.74,1.71a4.73,4.73,0,0,1,3.7,1.45,5.55,5.55,0,0,1,1.31,3.91V34.52q0,12.58-6.33,19.17T110,60.28q-12.15,0-18.57-6.59T85,34.52V7.15a5.56,5.56,0,0,1,1.36-4,4.87,4.87,0,0,1,3.74-1.45,4.73,4.73,0,0,1,3.7,1.45,5.68,5.68,0,0,1,1.32,4V34.44q0,8.16,3.78,12.36T110,51q14.79,0,14.79-16.57V7.07a5.56,5.56,0,0,1,1.32-3.91A4.62,4.62,0,0,1,129.74,1.71Zm69.95,16.07q0,8.92-7.31,12.41v.17q8.93,3.22,8.93,13.09,0,8.07-4.59,11.9t-14.2,3.82H156.26a5,5,0,0,1-5.44-5.44V7.66a5.39,5.39,0,0,1,1.44-4,5.4,5.4,0,0,1,4-1.45h24.65q9.6,0,14.19,3.78t4.59,11.78ZM160.93,26h19.55q9,0,9-7.22t-9-7.31H160.93Zm0,23.89h21q9,0,9-7.48,0-7.32-9-7.31h-21ZM240.66,1.2q12.5,0,19.34,7t6.84,20V54.24a5.61,5.61,0,0,1-1.36,4,4.88,4.88,0,0,1-3.74,1.44,4.78,4.78,0,0,1-3.65-1.44,5.61,5.61,0,0,1-1.36-4V42.51H224.34V54.33A5.63,5.63,0,0,1,223,58.24a4.67,4.67,0,0,1-3.62,1.44,4.74,4.74,0,0,1-3.69-1.44,5.59,5.59,0,0,1-1.32-3.91V28.15q0-13,6.84-20T240.66,1.2Zm16.07,32.05V27.72q0-8.41-4.17-12.83t-12-4.42q-7.91,0-12.07,4.37t-4.17,12.88v5.53Zm26.18-26.1a5.56,5.56,0,0,1,1.36-4A4.85,4.85,0,0,1,288,1.71a4.73,4.73,0,0,1,3.69,1.45,5.68,5.68,0,0,1,1.32,4V54.24a5.73,5.73,0,0,1-1.32,4A4.75,4.75,0,0,1,288,59.68a4.88,4.88,0,0,1-3.74-1.44,5.61,5.61,0,0,1-1.36-4V7.15Z"/><g class="cls-5"><path class="cls-3" d="M189.16,61.81H85.26c-1.56,0-1.56,0-1.56-1.6q0-29.51,0-59c0-1,.24-1.3,1.3-1.3q104.19,0,208.4,0c1.1,0,1.28.32,1.27,1.32q0,29.64,0,59.26c0,1.08-.26,1.37-1.36,1.37Q241.23,61.8,189.16,61.81Z"/></g><path class="cls-1" d="M94.46,106h29.76a5,5,0,0,1,3.44,1.16,4.08,4.08,0,0,1,1.28,3.16,4.18,4.18,0,0,1-1.28,3.2,4.84,4.84,0,0,1-3.44,1.2H90.06a4.71,4.71,0,0,1-5.12-5.12V65.77A5.24,5.24,0,0,1,86.22,62a4.61,4.61,0,0,1,3.52-1.36A4.5,4.5,0,0,1,93.22,62a5.41,5.41,0,0,1,1.24,3.76Zm49.19,0h31a4.94,4.94,0,0,1,3.44,1.16,4.08,4.08,0,0,1,1.28,3.16,4.18,4.18,0,0,1-1.28,3.2,4.82,4.82,0,0,1-3.44,1.2H139.25a4.71,4.71,0,0,1-5.12-5.12V66.25a4.71,4.71,0,0,1,5.12-5.12h35.36a4.82,4.82,0,0,1,3.44,1.2,4.2,4.2,0,0,1,1.28,3.2,4,4,0,0,1-1.28,3.16,4.89,4.89,0,0,1-3.44,1.16h-31v13.6h25a4.92,4.92,0,0,1,3.48,1.16,4.65,4.65,0,0,1,0,6.32,4.88,4.88,0,0,1-3.48,1.16h-25Zm66.64-45.84q11.76,0,18.2,6.56t6.44,18.8v24.56a5.27,5.27,0,0,1-1.28,3.76,4.6,4.6,0,0,1-3.52,1.36,4.48,4.48,0,0,1-3.44-1.36,5.23,5.23,0,0,1-1.28-3.76v-11H194.93v11.12a5.22,5.22,0,0,1-1.24,3.68,4.36,4.36,0,0,1-3.4,1.36,4.47,4.47,0,0,1-3.48-1.36,5.22,5.22,0,0,1-1.24-3.68V85.53q0-12.24,6.44-18.8T210.29,60.17Zm15.12,30.16v-5.2q0-7.92-3.92-12.08t-11.28-4.16q-7.44,0-11.36,4.12t-3.92,12.12v5.2Zm62.64-29.68A4.5,4.5,0,0,1,291.53,62a5.3,5.3,0,0,1,1.24,3.68v43.68a6,6,0,0,1-1.48,4.24,5.24,5.24,0,0,1-4,1.6,6.8,6.8,0,0,1-5.52-2.8L253.49,76.33h-.16v33.84a5.27,5.27,0,0,1-1.24,3.68,4.47,4.47,0,0,1-3.48,1.36,4.35,4.35,0,0,1-3.4-1.36,5.22,5.22,0,0,1-1.24-3.68V66.49a6,6,0,0,1,1.5-4.24,5.2,5.2,0,0,1,4-1.6,6.51,6.51,0,0,1,5.38,2.81l28.33,36.32h.27V65.7A5.24,5.24,0,0,1,284.65,62,4.36,4.36,0,0,1,288.05,60.65Z"/><g class="cls-6"><path class="cls-7" d="M188.78,116.75q-51.94,0-103.89,0c-1.12,0-1.46-.21-1.46-1.41q.07-27.53,0-55c0-1.2.34-1.41,1.46-1.41q103.89,0,207.78,0c1.16,0,1.52.21,1.52,1.46q-.07,27.53,0,55.05c0,1.14-.33,1.35-1.39,1.35Q240.79,116.73,188.78,116.75Z"/></g></g></svg>
